<?xml version="1.0" encoding="utf-8"?>
<!-- Generator: Adobe Illustrator 25.2.1, SVG Export Plug-In . SVG Version: 6.00 Build 0)  -->
<svg version="1.0" id="Layer_1" xmlns="http://www.w3.org/2000/svg" xmlns:xlink="http://www.w3.org/1999/xlink" x="0px" y="0px"
	 viewBox="0 0 256 195.24" style="enable-background:new 0 0 256 195.24;" xml:space="preserve">
<style type="text/css">
	.st0{display:none;}
	.st1{display:inline;fill:#121212;}
	.st2{fill:url(#SVGID_1_);}
</style>
<g class="st0">
	<path class="st1" d="M102.83,163.25l11.32,16.77c-10.02,6.78-22.1,10.74-35.11,10.74c-34.66,0-62.76-28.1-62.76-62.76
		c0-34.66,28.1-62.76,62.76-62.76c13.03,0,25.13,3.97,35.16,10.77l-11.34,16.76c-6.79-4.61-14.99-7.3-23.82-7.3
		c-23.49,0-42.53,19.04-42.53,42.53s19.04,42.53,42.53,42.53C87.85,170.53,96.04,167.84,102.83,163.25z"/>
	<path class="st1" d="M91.49,146.44l9.59,14.22c-6.29,4.26-13.87,6.74-22.04,6.74c-21.76,0-39.4-17.64-39.4-39.4
		s17.64-39.4,39.4-39.4c8.18,0,15.78,2.49,22.07,6.76l-9.61,14.21c-3.55-2.41-7.84-3.82-12.46-3.82c-12.29,0-22.25,9.96-22.25,22.25
		c0,12.29,9.96,22.25,22.25,22.25C83.65,150.25,87.93,148.84,91.49,146.44z"/>
</g>
<g>
	<g>
		<path d="M135.11,85.42c0,16.97-11.51,28.28-28.67,28.28c-17.16,0-28.67-11.31-28.67-28.18c0-16.97,11.51-28.28,28.67-28.28
			C123.6,57.24,135.11,68.55,135.11,85.42z M96.78,85.52c0,6.34,3.9,10.63,9.66,10.63c5.75,0,9.65-4.29,9.65-10.73
			c0-6.34-3.9-10.63-9.65-10.63C100.68,74.79,96.78,79.09,96.78,85.52z"/>
		<path d="M187.78,58.6c0.78,0,1.46,0.68,1.46,1.46v50.81c0,0.68-0.68,1.36-1.46,1.36h-11.02c-0.78,0-1.27-0.68-1.56-1.46
			l-1.46-3.51c-3.51,3.9-9.27,6.44-15.6,6.44c-12.68,0-20.19-8.09-20.19-21.36V60.07c0-0.78,0.68-1.46,1.46-1.46h17.17
			c0.78,0,1.46,0.68,1.46,1.46v29.84c0,3.32,2.05,5.56,5.17,5.56c3.8,0,5.95-3.12,5.95-3.12V60.07c0-0.78,0.68-1.46,1.46-1.46
			H187.78z"/>
		<path d="M248.94,41.54c0.78,0,1.46,0.68,1.46,1.37v67.88c0,0.78-0.68,1.46-1.46,1.46h-11.02c-0.68,0-1.17-0.59-1.56-1.46
			l-1.46-3.51c-3.71,3.9-9.95,6.44-16.48,6.44c-15.41,0-25.75-11.31-25.75-28.28c0-16.87,10.34-28.18,25.75-28.18
			c4.58,0,8.97,1.36,11.9,3.71V42.9c0-0.68,0.68-1.37,1.46-1.37H248.94z M230.31,79.38c-1.17-3.22-4.29-5.36-7.7-5.36
			c-5.36,0-8.97,4.49-8.97,11.31c0,7.02,3.61,11.7,8.97,11.7c3.41,0,6.54-2.14,7.7-5.36V79.38z"/>
	</g>
	<g>
		<path d="M83.21,131.76c3.22,0,6.92,1.17,9.36,2.92c0.68,0.49,1.37,0.2,1.76-0.59l5.66-11.9c0.29-0.49,0-1.17-0.59-1.66
			c-5.27-3.32-12.48-5.56-18.04-5.56C63.7,114.99,52,126.3,52,143.27s11.7,28.28,29.35,28.28c5.56,0,12.78-2.24,18.04-5.56
			c0.59-0.49,0.88-1.17,0.59-1.66l-5.66-11.9c-0.39-0.78-1.07-1.07-1.76-0.59c-2.44,1.76-6.14,2.92-9.36,2.92
			c-7.12,0-11.8-4.58-11.8-11.51S76.09,131.76,83.21,131.76z"/>
		<path d="M122.33,116.35h-17.16c-0.78,0-1.46,0.68-1.46,1.36v50.81c0,0.78,0.68,1.46,1.46,1.46h17.16c0.78,0,1.46-0.68,1.46-1.46
			v-50.81C123.79,117.04,123.11,116.35,122.33,116.35z"/>
		<path d="M180.16,116.71h-52.47c-0.68,0-1.36,0.68-1.36,1.46v14.73c0,0.78,0.68,1.37,1.36,1.37h16.19v35.05
			c0,0.68,0.68,1.36,1.46,1.36h17.26c0.78,0,1.36-0.68,1.36-1.36v-35.05h14.53c0.68,0,1.46-0.59,1.56-1.37l1.46-14.82
			C181.63,117.39,181.04,116.71,180.16,116.71z"/>
		<path d="M243.09,116.35h-19.21c-0.68,0-1.56,0.49-1.76,1.36l-7.41,30.62l-7.51-30.62c-0.29-0.78-0.97-1.36-1.85-1.36h-19.6
			c-0.78,0-1.27,0.68-0.98,1.36l15.7,47.59c0.2,0.68,0.78,1.36,1.76,1.36h8c-1.36,5.66-3.9,7.9-8.87,7.9
			c-2.83,0-6.34-1.27-9.56-3.51c-0.39-0.29-0.88-0.1-1.17,0.59l-5.46,11.02c-0.1,0.49,0,1.17,0.49,1.66
			c3.22,3.12,9.85,5.27,16.58,5.27c12.48,0,20.58-4.97,25.26-19.6l16.68-52.27C244.36,117.04,243.97,116.35,243.09,116.35z"/>
	</g>
	<linearGradient id="SVGID_1_" gradientUnits="userSpaceOnUse" x1="18.3341" y1="88.3844" x2="102.4044" y2="88.3844">
		<stop  offset="0" style="stop-color:#F15A29"/>
		<stop  offset="0.9983" style="stop-color:#F7941D"/>
	</linearGradient>
	<path class="st2" d="M102.04,5.6c-0.38-0.54-1-0.87-1.67-0.87H79.79c-0.85,0-1.61,0.53-1.91,1.33L18.46,169.31
		c-0.23,0.62-0.14,1.32,0.24,1.86c0.38,0.54,1,0.87,1.67,0.87h20.5c0.85,0,1.61-0.53,1.91-1.33l59.5-163.25
		C102.51,6.84,102.42,6.14,102.04,5.6z"/>
	<g>
		<path d="M52.42,106.59c0.29,0.49,0,1.17-0.59,1.66c-5.27,3.32-12.48,5.56-18.04,5.56c-17.65,0-29.35-11.31-29.35-28.28
			s11.7-28.28,29.35-28.28c5.56,0,12.78,2.24,18.04,5.56c0.59,0.49,0.88,1.17,0.59,1.66l-4.81,11.8c-0.39,0.78-1.07,1.07-1.76,0.59
			c-2.44-1.76-6.99-2.82-10.21-2.82c-7.12,0-11.8,4.58-11.8,11.51c0,6.92,4.68,11.51,11.8,11.51c3.22,0,6.92-1.17,9.36-2.92
			c0.68-0.49,1.37-0.2,1.76,0.59L52.42,106.59z"/>
	</g>
</g>
</svg>
